<?xml version="1.0" encoding="UTF-8" ?>
<!DOCTYPE svg PUBLIC "-//W3C//DTD SVG 1.1//EN" "http://www.w3.org/Graphics/SVG/1.1/DTD/svg11.dtd">
<svg width="219pt" height="87pt" viewBox="0 0 219 87" version="1.1" xmlns="http://www.w3.org/2000/svg">
<g id="#fefefeff">
</g>
<g id="#00c3f0ff">
<path fill="#00c3f0" opacity="1.00" d=" M 26.32 26.51 C 29.73 24.30 34.63 27.14 34.48 31.15 C 34.54 41.05 34.60 50.96 34.45 60.85 C 34.44 64.92 29.27 67.22 26.02 65.05 C 24.78 63.98 23.52 62.58 23.58 60.83 C 23.47 51.20 23.58 41.57 23.53 31.94 C 23.39 29.81 24.36 27.50 26.32 26.51 Z" />
</g>
<g id="#f00059ff">
<path fill="#f00059" opacity="1.00" d=" M 41.35 26.40 C 42.79 25.64 44.46 25.87 46.02 25.80 C 52.69 25.89 59.37 25.78 66.05 25.84 C 68.91 25.67 71.78 28.01 71.71 30.97 C 72.00 34.07 69.12 36.90 66.04 36.62 C 58.15 36.53 50.25 36.85 42.37 36.43 C 37.58 35.62 36.92 28.25 41.35 26.40 Z" />
</g>
<g id="#000000ff">
<path fill="#000000" opacity="1.00" d=" M 155.61 29.63 C 159.21 27.40 163.02 33.06 159.21 35.21 C 155.55 37.69 151.58 31.68 155.61 29.63 Z" />
<path fill="#000000" opacity="1.00" d=" M 193.48 29.57 C 196.05 28.00 199.90 31.17 198.13 33.85 C 197.27 36.05 194.06 36.20 192.53 34.66 C 190.87 33.37 191.57 30.29 193.48 29.57 Z" />
<path fill="#000000" opacity="1.00" d=" M 76.16 29.85 C 82.55 29.82 88.93 29.83 95.32 29.84 C 95.33 31.47 95.33 33.09 95.34 34.72 C 90.78 34.80 86.23 34.74 81.68 34.77 C 81.66 37.54 81.65 40.31 81.68 43.08 C 85.65 43.10 89.62 43.00 93.59 43.08 C 93.59 44.76 93.59 46.43 93.60 48.11 C 89.63 48.14 85.66 48.10 81.69 48.13 C 81.65 50.68 81.65 53.23 81.68 55.78 C 86.37 55.83 91.06 55.77 95.75 55.83 C 95.75 57.46 95.75 59.09 95.74 60.73 C 89.21 60.78 82.68 60.77 76.15 60.74 C 76.11 50.44 76.09 40.14 76.16 29.85 Z" />
<path fill="#000000" opacity="1.00" d=" M 130.25 41.19 C 134.16 38.37 139.88 38.80 143.29 42.23 C 143.29 41.62 143.28 40.40 143.28 39.79 C 145.03 39.80 146.77 39.81 148.52 39.82 C 148.50 46.74 148.64 53.68 148.41 60.60 C 148.17 65.31 144.90 70.00 140.08 70.83 C 134.84 72.33 129.00 69.84 126.48 65.02 C 127.94 64.39 129.40 63.75 130.88 63.14 C 132.87 65.80 136.55 67.43 139.71 65.79 C 142.70 64.57 142.98 60.99 143.42 58.25 C 140.31 61.22 135.60 62.14 131.71 60.18 C 124.39 57.07 123.75 45.48 130.25 41.19 M 135.29 44.52 C 130.52 45.69 129.73 52.74 133.76 55.28 C 137.22 57.85 142.83 55.31 143.11 50.99 C 143.79 46.79 139.29 43.10 135.29 44.52 Z" />
<path fill="#000000" opacity="1.00" d=" M 100.81 39.82 C 102.58 39.82 104.34 39.82 106.11 39.82 C 106.10 40.52 106.08 41.91 106.07 42.61 C 109.65 37.81 118.49 38.37 120.38 44.41 C 121.87 49.69 120.81 55.29 121.12 60.71 C 119.35 60.71 117.58 60.72 115.81 60.73 C 115.63 56.37 116.09 51.97 115.53 47.63 C 114.43 43.08 107.07 43.86 106.32 48.23 C 105.81 52.37 106.20 56.57 106.09 60.74 C 104.33 60.74 102.57 60.74 100.82 60.74 C 100.79 53.77 100.80 46.79 100.81 39.82 Z" />
<path fill="#000000" opacity="1.00" d=" M 154.73 39.82 C 156.45 39.82 158.17 39.82 159.89 39.80 C 160.18 46.77 160.16 53.76 159.90 60.74 C 158.18 60.74 156.47 60.74 154.76 60.75 C 154.64 53.77 154.69 46.80 154.73 39.82 Z" />
<path fill="#000000" opacity="1.00" d=" M 166.13 39.83 C 167.91 39.82 169.68 39.81 171.46 39.80 C 171.45 40.49 171.41 41.88 171.39 42.57 C 174.94 37.88 183.48 38.34 185.64 44.10 C 187.21 49.46 186.10 55.17 186.51 60.69 C 184.71 60.73 182.90 60.75 181.10 60.75 C 180.94 56.45 181.31 52.13 180.90 47.84 C 180.11 43.29 172.92 43.62 171.77 47.81 C 171.00 52.06 171.59 56.42 171.47 60.71 C 169.69 60.73 167.90 60.74 166.12 60.73 C 166.17 53.77 166.11 46.80 166.13 39.83 Z" />
<path fill="#000000" opacity="1.00" d=" M 192.47 60.75 C 192.42 53.76 192.42 46.78 192.47 39.79 C 194.22 39.82 195.98 39.84 197.73 39.85 C 197.68 46.81 197.74 53.77 197.70 60.73 C 195.96 60.74 194.21 60.74 192.47 60.75 Z" />
</g>
<g id="#efae00ff">
<path fill="#efae00" opacity="1.00" d=" M 42.44 40.61 C 50.58 40.29 58.75 40.48 66.90 40.51 C 71.44 40.55 73.36 47.17 69.94 49.91 C 67.76 51.87 64.65 51.12 62.00 51.24 C 55.36 50.99 48.64 51.71 42.04 50.91 C 36.91 49.68 37.35 41.50 42.44 40.61 Z" />
</g>
<g id="#00b873ff">
<path fill="#00b873" opacity="1.00" d=" M 42.26 55.32 C 49.18 54.84 56.14 55.28 63.08 55.10 C 65.50 55.21 68.43 54.70 70.26 56.70 C 73.30 59.55 71.34 65.61 67.02 65.74 C 58.77 65.80 50.48 66.00 42.23 65.63 C 37.12 64.55 37.13 56.32 42.26 55.32 Z" />
</g>
</svg>
