<?xml version="1.0" encoding="UTF-8" ?>
<!DOCTYPE svg PUBLIC "-//W3C//DTD SVG 1.1//EN" "http://www.w3.org/Graphics/SVG/1.1/DTD/svg11.dtd">
<svg width="100pt" height="100pt" viewBox="0 0 100 100" version="1.1" xmlns="http://www.w3.org/2000/svg">
<g id="#ffffffff">
<path fill="#ffffff" opacity="1.00" d=" M 18.19 35.92 C 18.57 35.78 19.35 35.50 19.74 35.36 C 24.54 39.73 29.28 44.16 34.02 48.58 C 39.04 44.16 43.72 39.37 48.92 35.16 C 49.21 35.50 49.81 36.20 50.10 36.55 C 50.05 45.81 50.20 55.07 50.04 64.33 C 49.25 65.40 48.41 65.46 47.50 64.51 C 47.28 56.28 47.51 48.05 47.40 39.82 C 42.91 43.84 38.72 48.19 33.99 51.94 C 29.48 48.04 25.17 43.90 20.79 39.84 C 20.68 48.15 20.80 56.45 20.72 64.75 C 20.12 64.76 18.92 64.78 18.32 64.79 C 17.94 55.18 18.23 45.54 18.19 35.92 Z" />
<path fill="#ffffff" opacity="1.00" d=" M 53.77 40.00 C 54.09 38.37 52.88 35.70 55.32 35.21 C 58.88 39.06 62.63 42.82 65.80 46.99 C 65.69 47.41 65.47 48.26 65.36 48.69 C 61.42 47.27 59.44 42.90 56.41 40.17 C 56.31 48.46 56.62 56.77 56.25 65.06 L 54.76 65.10 C 54.53 64.92 54.06 64.56 53.83 64.38 C 53.70 56.26 53.84 48.13 53.77 40.00 Z" />
<path fill="#ffffff" opacity="1.00" d=" M 78.91 36.63 C 79.23 34.83 81.72 35.33 81.45 36.98 C 81.57 46.18 81.59 55.40 81.44 64.60 C 81.06 64.79 80.31 65.16 79.93 65.35 C 76.29 61.74 72.89 57.86 69.56 53.95 C 69.64 53.46 69.79 52.48 69.86 51.99 C 73.84 53.41 75.96 57.75 78.83 60.68 C 78.94 52.66 78.80 44.64 78.91 36.63 Z" />
</g>
<g id="#000000ff">
<path fill="#000000" opacity="1.00" d=" M 39.48 4.64 C 50.61 2.19 62.66 3.72 72.62 9.36 C 87.14 17.31 96.93 33.39 96.80 50.01 C 97.10 61.38 92.75 72.72 85.20 81.19 C 76.71 90.99 63.97 97.00 51.00 97.16 C 39.22 97.60 27.40 93.19 18.62 85.36 C 6.30 74.76 0.37 57.41 3.67 41.48 C 6.94 23.53 21.68 8.49 39.48 4.64 M 18.19 35.92 C 18.23 45.54 17.94 55.18 18.32 64.79 C 18.92 64.78 20.12 64.76 20.72 64.75 C 20.80 56.45 20.68 48.15 20.79 39.84 C 25.17 43.90 29.48 48.04 33.99 51.94 C 38.72 48.19 42.91 43.84 47.40 39.82 C 47.51 48.05 47.28 56.28 47.50 64.51 C 48.41 65.46 49.25 65.40 50.04 64.33 C 50.20 55.07 50.05 45.81 50.10 36.55 C 49.81 36.20 49.21 35.50 48.92 35.16 C 43.72 39.37 39.04 44.16 34.02 48.58 C 29.28 44.16 24.54 39.73 19.74 35.36 C 19.35 35.50 18.57 35.78 18.19 35.92 M 53.77 40.00 C 53.84 48.13 53.70 56.26 53.83 64.38 C 54.06 64.56 54.53 64.92 54.76 65.10 L 56.25 65.06 C 56.62 56.77 56.31 48.46 56.41 40.17 C 59.44 42.90 61.42 47.27 65.36 48.69 C 65.47 48.26 65.69 47.41 65.80 46.99 C 62.63 42.82 58.88 39.06 55.32 35.21 C 52.88 35.70 54.09 38.37 53.77 40.00 M 78.91 36.63 C 78.80 44.64 78.94 52.66 78.83 60.68 C 75.96 57.75 73.84 53.41 69.86 51.99 C 69.79 52.48 69.64 53.46 69.56 53.95 C 72.89 57.86 76.29 61.74 79.93 65.35 C 80.31 65.16 81.06 64.79 81.44 64.60 C 81.59 55.40 81.57 46.18 81.45 36.98 C 81.72 35.33 79.23 34.83 78.91 36.63 Z" />
</g>
</svg>
