<?xml version="1.0" encoding="UTF-8" ?>
<!DOCTYPE svg PUBLIC "-//W3C//DTD SVG 1.1//EN" "http://www.w3.org/Graphics/SVG/1.1/DTD/svg11.dtd">
<svg width="269pt" height="269pt" viewBox="0 0 269 269" version="1.1" xmlns="http://www.w3.org/2000/svg">
<g id="#25d7fcff">
<path fill="#25d7fc" opacity="1.00" d=" M 23.70 51.80 C 28.99 50.29 34.59 50.81 40.02 50.51 C 55.93 50.51 71.84 50.47 87.75 50.53 C 87.65 60.38 87.83 70.24 87.69 80.09 C 87.49 91.22 80.91 101.81 71.25 107.23 C 65.87 109.68 60.02 112.04 54.00 111.28 C 46.36 111.03 38.70 112.08 31.08 111.05 C 21.55 111.14 11.96 106.34 6.71 98.29 C 4.43 94.80 2.64 91.00 1.36 87.04 L 0.20 86.54 C 0.46 83.20 0.82 79.56 -0.00 76.30 C 2.48 77.77 2.36 74.46 2.61 73.09 C 4.71 62.68 13.55 54.36 23.70 51.80 M 17.23 82.09 C 17.43 89.23 23.98 95.21 31.04 95.28 C 37.35 95.68 43.70 94.96 50.04 95.35 C 57.05 95.94 64.96 94.28 69.10 88.05 C 73.03 81.58 71.75 73.54 71.52 66.38 C 57.32 66.79 43.09 66.09 28.89 66.83 C 21.68 67.70 16.80 75.13 17.23 82.09 Z" />
</g>
<g id="#35365bff">
<path fill="#35365b" opacity="1.00" d=" M 116.47 60.48 C 122.85 55.47 131.10 53.90 138.97 53.00 C 148.01 53.05 157.43 53.24 165.78 57.14 C 169.27 58.75 172.34 61.70 173.48 65.43 C 174.54 69.68 171.87 73.62 169.10 76.57 C 158.56 70.68 144.84 67.05 133.19 72.23 C 127.96 74.56 125.51 82.66 130.17 86.71 C 132.84 88.61 135.76 90.19 138.94 91.04 C 149.85 94.79 161.97 97.11 170.46 105.56 C 176.37 110.91 178.59 119.28 177.98 127.03 C 177.43 136.35 171.70 145.08 163.33 149.24 C 150.65 155.73 135.60 155.18 122.02 152.16 C 115.67 150.19 108.09 146.95 106.37 139.81 C 105.19 134.72 108.79 130.19 113.00 127.86 C 123.26 135.91 137.79 140.29 150.36 135.17 C 156.86 132.39 159.25 122.99 154.28 117.76 C 149.29 112.76 141.93 111.97 135.65 109.43 C 127.49 107.05 119.23 103.93 112.87 98.13 C 103.02 87.70 104.77 68.82 116.47 60.48 Z" />
<path fill="#35365b" opacity="1.00" d=" M 194.22 55.06 C 195.61 54.20 197.41 55.03 198.98 54.76 C 211.66 54.85 224.35 54.48 237.02 55.08 C 248.53 55.79 259.80 62.83 264.22 73.73 C 267.51 81.28 266.75 89.73 267.82 97.68 L 269.25 98.07 C 268.39 99.98 269.16 102.01 269.15 103.98 C 269.35 107.20 268.15 110.39 268.90 113.59 L 267.74 114.16 C 266.85 121.46 266.42 129.12 262.80 135.71 C 257.67 145.46 246.79 150.72 236.14 151.54 C 230.77 152.21 225.41 151.06 220.03 151.22 C 213.51 150.77 206.73 149.46 201.21 145.76 C 196.11 141.54 194.44 134.48 194.27 128.12 C 194.17 103.77 194.23 79.42 194.22 55.06 M 213.25 71.81 C 213.25 90.19 213.22 108.57 213.34 126.96 C 213.29 130.96 217.10 133.69 220.76 134.15 C 227.70 135.39 235.54 135.82 241.60 131.59 C 246.46 128.02 247.98 121.69 248.18 115.96 C 248.59 105.44 248.97 94.82 247.40 84.37 C 246.42 77.44 239.87 72.10 232.98 71.95 C 226.42 71.21 219.82 71.58 213.25 71.81 Z" />
<path fill="#35365b" opacity="1.00" d=" M 152.45 173.38 C 155.10 171.55 159.03 173.88 159.05 176.99 C 159.78 180.49 155.44 183.36 152.45 181.49 C 149.14 180.16 148.97 174.63 152.45 173.38 Z" />
<path fill="#35365b" opacity="1.00" d=" M 74.18 175.16 C 76.88 174.38 82.04 173.94 82.05 178.00 C 82.13 190.74 82.25 203.48 82.15 216.22 C 79.62 216.41 75.72 217.53 74.44 214.52 C 73.95 201.40 74.42 188.28 74.18 175.16 Z" />
<path fill="#35365b" opacity="1.00" d=" M 6.37 180.36 C 12.46 175.85 21.23 175.72 27.79 179.27 C 30.12 180.65 29.85 183.68 28.72 185.76 C 28.35 185.79 27.61 185.86 27.25 185.90 C 22.96 183.78 17.43 182.27 13.09 185.06 C 11.07 186.25 10.74 189.97 13.23 190.79 C 18.18 193.27 24.18 193.73 28.30 197.71 C 32.63 201.68 32.37 209.18 28.23 213.20 C 23.94 217.34 17.47 217.43 11.92 216.75 C 8.82 216.15 5.16 215.38 3.52 212.35 C 2.19 210.46 3.80 207.23 5.90 206.85 C 9.65 209.53 14.45 210.79 19.01 210.07 C 22.42 209.53 24.62 204.80 21.84 202.28 C 17.16 199.09 10.89 199.30 6.56 195.46 C 1.71 191.96 2.34 184.25 6.37 180.36 Z" />
<path fill="#35365b" opacity="1.00" d=" M 126.27 178.26 C 128.69 178.08 131.77 177.22 133.58 179.39 C 134.38 181.83 134.00 184.44 134.09 186.96 C 137.30 187.16 140.54 186.75 143.73 187.17 C 143.78 189.03 144.90 191.71 142.84 192.90 C 139.97 193.47 137.03 193.20 134.13 193.22 C 134.10 198.38 133.76 203.56 134.37 208.69 C 136.35 212.13 140.70 209.40 143.59 210.29 C 144.31 212.29 144.11 215.01 142.02 216.10 C 137.91 217.75 132.90 217.37 129.18 214.87 C 126.44 212.81 126.11 209.08 126.18 205.92 C 126.23 196.70 126.15 187.48 126.27 178.26 Z" />
<path fill="#35365b" opacity="1.00" d=" M 49.49 185.53 C 54.85 184.52 60.72 186.47 64.10 190.84 C 68.58 197.12 68.43 206.42 63.42 212.37 C 56.16 220.28 40.16 217.75 37.20 206.88 C 34.07 198.00 39.43 186.29 49.49 185.53 M 49.21 192.13 C 42.16 195.86 42.77 209.15 51.16 210.68 C 59.04 211.37 61.23 200.62 57.68 195.21 C 56.10 192.23 52.32 190.99 49.21 192.13 Z" />
<path fill="#35365b" opacity="1.00" d=" M 176.48 185.73 C 182.78 184.14 190.45 186.41 193.82 192.26 C 197.21 198.21 196.79 206.18 192.62 211.65 C 186.26 219.78 171.13 218.84 166.88 209.02 C 162.49 200.57 166.39 187.63 176.48 185.73 M 177.28 192.41 C 173.45 194.93 172.65 200.17 173.70 204.35 C 174.05 207.94 177.12 211.22 180.92 210.67 C 189.97 209.65 190.41 195.30 182.88 191.82 C 181.02 191.25 179.00 191.58 177.28 192.41 Z" />
<path fill="#35365b" opacity="1.00" d=" M 202.82 191.00 C 205.40 186.54 211.22 185.86 215.89 185.50 C 221.42 184.36 228.18 187.29 229.74 193.04 C 230.63 200.71 229.92 208.45 230.20 216.15 C 227.71 216.71 223.89 217.07 222.47 214.40 C 221.61 207.71 222.91 200.89 221.75 194.25 C 219.23 190.63 214.12 191.69 210.60 193.01 C 210.57 200.60 210.58 208.19 210.61 215.79 C 208.42 217.13 203.58 217.17 202.73 214.00 C 202.49 206.33 202.42 198.66 202.82 191.00 Z" />
<path fill="#35365b" opacity="1.00" d=" M 241.17 187.13 C 245.11 184.89 249.89 184.82 254.23 185.73 C 256.53 185.97 258.61 187.38 259.96 189.20 C 260.46 190.71 259.42 192.11 259.02 193.50 C 255.23 192.91 251.11 190.45 247.05 192.02 C 245.06 192.26 243.99 194.90 245.69 196.23 C 251.02 198.60 259.11 198.38 261.10 205.13 C 262.57 210.27 258.67 215.95 253.40 216.61 C 248.42 217.41 242.78 217.47 238.42 214.52 C 236.27 212.83 237.00 209.97 238.14 207.92 C 242.38 209.02 246.78 212.25 251.26 210.19 C 253.97 210.01 254.29 206.14 251.94 205.12 C 247.68 203.32 242.57 203.20 239.04 199.91 C 235.66 196.22 236.89 189.62 241.17 187.13 Z" />
<path fill="#35365b" opacity="1.00" d=" M 90.37 186.30 C 92.97 186.00 96.89 185.07 98.25 188.04 C 98.89 194.62 97.66 201.31 99.09 207.81 C 101.35 211.86 106.44 210.57 110.11 209.77 C 110.24 201.89 110.26 193.99 110.17 186.11 C 112.78 186.12 116.62 185.03 117.97 188.07 C 118.12 196.03 118.30 204.00 117.98 211.95 C 115.82 216.18 110.20 216.50 106.01 216.92 C 99.90 217.62 92.09 214.85 90.86 208.09 C 89.99 200.87 90.66 193.55 90.37 186.30 Z" />
<path fill="#35365b" opacity="1.00" d=" M 150.87 186.15 C 153.16 186.18 156.15 185.16 157.83 187.28 C 158.83 189.02 158.36 191.09 158.49 193.00 C 158.63 200.58 158.55 208.17 158.61 215.75 C 156.42 217.16 151.58 217.19 150.73 213.92 C 150.78 204.68 150.31 195.33 150.87 186.15 Z" />
</g>
<g id="#9277fbff">
<path fill="#9277fb" opacity="1.00" d=" M 66.28 114.03 C 71.45 111.97 76.20 109.00 80.75 105.96 C 89.21 116.40 90.05 132.24 82.26 143.27 C 76.87 150.92 67.47 155.99 57.91 156.20 C 42.93 156.32 27.95 156.29 12.97 156.00 C 8.66 155.82 4.26 156.41 0.00 155.63 L 0.00 125.37 C 2.44 119.34 4.44 112.61 8.41 107.09 C 12.88 110.11 17.61 112.87 22.80 114.50 L 23.01 115.05 C 16.12 121.43 16.80 131.68 17.21 140.25 C 30.48 140.26 43.75 140.25 57.02 140.25 C 64.66 140.57 72.06 133.79 71.78 126.00 C 72.13 121.31 69.29 117.30 66.28 114.03 Z" />
</g>
</svg>
